<svg width="184" height="39" viewBox="0 0 184 39" fill="none" xmlns="http://www.w3.org/2000/svg">
<rect x="0.00158691" y="13.9762" width="19.7654" height="35.2957" rx="9.88269" transform="rotate(-45 0.00158691 13.9762)" fill="#155BD5"/>
<path opacity="0.5" d="M33.9452 5.39145L33.9452 15.4977L23.839 5.39145L33.9452 5.39145Z" fill="#155BD5"/>
<path d="M5.4639 33.8728V23.7665L15.5702 33.8728H5.4639Z" fill="#155BD5"/>
<path d="M48.9983 30.6369H58.6122C63.6664 30.6369 66.3583 28.0167 66.3583 24.4575C66.3583 21.1494 63.9741 19.1514 61.414 19.0314V18.813C63.7543 18.2889 65.4793 16.6404 65.4793 14.0092C65.4793 10.6574 62.9742 8.27738 58.0079 8.27738H48.9983V30.6369ZM53.7558 26.772V20.8328H57.7442C60.0296 20.8328 61.447 22.1429 61.447 23.988C61.447 25.6693 60.2933 26.772 57.6344 26.772H53.7558ZM53.7558 17.6339V12.0986H57.3707C59.4802 12.0986 60.6778 13.1794 60.6778 14.7953C60.6778 16.5639 59.2275 17.6339 57.2828 17.6339H53.7558Z" fill="#2D2D2D"/>
<path d="M80.1886 23.4967C80.1996 25.7458 78.6504 26.9249 76.9694 26.9249C75.2004 26.9249 74.0577 25.6912 74.0467 23.7151V13.8673H69.3661V24.5448C69.3771 28.4643 71.6844 30.8553 75.0795 30.8553C77.6176 30.8553 79.4415 29.5561 80.1996 27.5909H80.3754V30.6369H84.8693V13.8673H80.1886V23.4967Z" fill="#2D2D2D"/>
<path d="M102.655 18.6492C102.238 15.5595 99.7324 13.6489 95.4693 13.6489C91.1513 13.6489 88.3056 15.6359 88.3165 18.8676C88.3056 21.3787 89.8987 23.0054 93.1949 23.6605L96.1176 24.2391C97.5899 24.5339 98.2601 25.0689 98.2821 25.9095C98.2601 26.903 97.1724 27.6127 95.5352 27.6127C93.8652 27.6127 92.7554 26.903 92.4698 25.5383L87.8661 25.7785C88.3056 28.9883 91.0524 30.9644 95.5242 30.9644C99.8972 30.9644 103.029 28.7481 103.04 25.4401C103.029 23.0163 101.435 21.5643 98.1612 20.8983L95.1067 20.2869C93.5355 19.9484 92.9532 19.4135 92.9642 18.6056C92.9532 17.6011 94.0959 16.9461 95.5462 16.9461C97.1723 16.9461 98.1392 17.8304 98.37 18.9113L102.655 18.6492Z" fill="#2D2D2D"/>
<path d="M105.987 30.6369H110.668V13.8673H105.987V30.6369ZM108.338 11.7055C109.734 11.7055 110.876 10.6465 110.876 9.34732C110.876 8.05902 109.734 7 108.338 7C106.954 7 105.811 8.05902 105.811 9.34732C105.811 10.6465 106.954 11.7055 108.338 11.7055Z" fill="#2D2D2D"/>
<path d="M119.098 20.942C119.109 18.7802 120.405 17.5138 122.295 17.5138C124.174 17.5138 125.305 18.7366 125.294 20.7891V30.6369H129.975V19.9594C129.975 16.0508 127.668 13.6489 124.152 13.6489C121.647 13.6489 119.834 14.8717 119.076 16.826H118.878V13.8673H114.417V30.6369H119.098V20.942Z" fill="#2D2D2D"/>
<path d="M141.355 30.9644C145.53 30.9644 148.343 28.9447 149.002 25.8331L144.673 25.5492C144.201 26.8266 142.992 27.4926 141.432 27.4926C139.092 27.4926 137.609 25.9532 137.609 23.453V23.4421H149.101V22.1647C149.101 16.4657 145.629 13.6489 141.168 13.6489C136.202 13.6489 132.983 17.1535 132.983 22.3285C132.983 27.6455 136.158 30.9644 141.355 30.9644ZM137.609 20.5598C137.707 18.6492 139.169 17.1207 141.245 17.1207C143.278 17.1207 144.684 18.5619 144.695 20.5598H137.609Z" fill="#2D2D2D"/>
<path d="M166.198 18.6492C165.78 15.5595 163.275 13.6489 159.012 13.6489C154.694 13.6489 151.848 15.6359 151.859 18.8676C151.848 21.3787 153.441 23.0054 156.738 23.6605L159.66 24.2391C161.132 24.5339 161.803 25.0689 161.825 25.9095C161.803 26.903 160.715 27.6127 159.078 27.6127C157.408 27.6127 156.298 26.903 156.012 25.5383L151.409 25.7785C151.848 28.9883 154.595 30.9644 159.067 30.9644C163.44 30.9644 166.571 28.7481 166.582 25.4401C166.571 23.0163 164.978 21.5643 161.704 20.8983L158.649 20.2869C157.078 19.9484 156.496 19.4135 156.507 18.6056C156.496 17.6011 157.639 16.9461 159.089 16.9461C160.715 16.9461 161.682 17.8304 161.913 18.9113L166.198 18.6492Z" fill="#2D2D2D"/>
<path d="M183.571 18.6492C183.154 15.5595 180.649 13.6489 176.386 13.6489C172.068 13.6489 169.222 15.6359 169.233 18.8676C169.222 21.3787 170.815 23.0054 174.111 23.6605L177.034 24.2391C178.506 24.5339 179.176 25.0689 179.198 25.9095C179.176 26.903 178.089 27.6127 176.452 27.6127C174.782 27.6127 173.672 26.903 173.386 25.5383L168.782 25.7785C169.222 28.9883 171.969 30.9644 176.441 30.9644C180.814 30.9644 183.945 28.7481 183.956 25.4401C183.945 23.0163 182.352 21.5643 179.078 20.8983L176.023 20.2869C174.452 19.9484 173.87 19.4135 173.881 18.6056C173.87 17.6011 175.012 16.9461 176.463 16.9461C178.089 16.9461 179.056 17.8304 179.286 18.9113L183.571 18.6492Z" fill="#2D2D2D"/>
</svg>
